<svg width="19" height="19" viewBox="0 0 19 19" fill="none" xmlns="http://www.w3.org/2000/svg">
<path d="M17.536 4.31863C17.7915 4.06001 17.9348 3.7111 17.9348 3.34753C17.9348 2.98397 17.7915 2.63506 17.536 2.37643L16.5584 1.39882C16.303 1.16246 15.9679 1.03116 15.6199 1.03116C15.2719 1.03116 14.9367 1.16246 14.6814 1.39882L9.46741 6.5476L4.31863 1.39882C4.06001 1.14329 3.7111 1 3.34753 1C2.98397 1 2.63506 1.14329 2.37643 1.39882L1.39882 2.37643C1.14329 2.63506 1 2.98397 1 3.34753C1 3.7111 1.14329 4.06001 1.39882 4.31863L6.61277 9.53259L1.39882 14.6814C1.14329 14.94 1 15.2889 1 15.6525C1 16.016 1.14329 16.3649 1.39882 16.6236L2.37643 17.6012C2.63506 17.8567 2.98397 18 3.34753 18C3.7111 18 4.06001 17.8567 4.31863 17.6012L9.46741 12.3872L14.6814 17.536C14.94 17.7915 15.2889 17.9348 15.6525 17.9348C16.016 17.9348 16.3649 17.7915 16.6236 17.536L17.6012 16.5584C17.8567 16.2998 18 15.9509 18 15.5873C18 15.2237 17.8567 14.8748 17.6012 14.6162L12.3872 9.46741L17.536 4.31863Z" stroke="white" stroke-width="1.71429" stroke-linecap="round" stroke-linejoin="round"/>
</svg>
