<svg width="17" height="17" viewBox="0 0 17 17" fill="none" xmlns="http://www.w3.org/2000/svg">
<path d="M16.536 3.31863C16.7915 3.06001 16.9348 2.7111 16.9348 2.34753C16.9348 1.98397 16.7915 1.63506 16.536 1.37643L15.5584 0.398817C15.303 0.162458 14.9679 0.0311624 14.6199 0.0311624C14.2719 0.0311624 13.9367 0.162458 13.6814 0.398817L8.46741 5.5476L3.31863 0.398817C3.06001 0.143294 2.7111 0 2.34753 0C1.98397 0 1.63506 0.143294 1.37643 0.398817L0.398817 1.37643C0.143294 1.63506 0 1.98397 0 2.34753C0 2.7111 0.143294 3.06001 0.398817 3.31863L5.61277 8.53259L0.398817 13.6814C0.143294 13.94 0 14.2889 0 14.6525C0 15.016 0.143294 15.3649 0.398817 15.6236L1.37643 16.6012C1.63506 16.8567 1.98397 17 2.34753 17C2.7111 17 3.06001 16.8567 3.31863 16.6012L8.46741 11.3872L13.6814 16.536C13.94 16.7915 14.2889 16.9348 14.6525 16.9348C15.016 16.9348 15.3649 16.7915 15.6236 16.536L16.6012 15.5584C16.8567 15.2998 17 14.9509 17 14.5873C17 14.2237 16.8567 13.8748 16.6012 13.6162L11.3872 8.46741L16.536 3.31863Z" fill="white"/>
</svg>
